<svg class="css-ze2te4 css-qd6ojx" viewBox="0 0 83.33333333333333 85.02650511706544"><g transform="translate(-57.376303599205634, -61.21052747770445) scale(0.39018283414150284)" class="css-xfkn0o" fill="#037ecc"><path xmlns="http://www.w3.org/2000/svg" fill="{{COLOR}}" d="M282.46 315a.2.2 0 0 0 .01.39q6.42.71 13.79.36 3.44-.16 5.61-1.47a2.99 2.98-61.6 0 1 1.43-.43l3.68-.17q.95-.03 1.23-2.45a.28.28 0 0 1 .28-.25h10.02a1.42 1.41-73.2 0 0 1.18-.64l35.59-53.57a.89.89 0 0 1 1.57.19l3.71 10.09a1.04 1.02 51.8 0 1-.1.92l-35.94 54.09a1.1 1.1 0 0 0 .18 1.41q6.17 5.6 7.62 14.25c1.13 6.71.84 18.1-4.83 23.01q-2.55 2.21-9.56 5.21c-8.58 3.67-15.74 7.25-22.76 6.77q-1.82-.12-3.79.66c-4.4 1.76-7.9 1.84-12.67.49q-9.18-2.58-21.67-6.58a6.47 6.32-34.4 0 0-1.77-.31c-7.05-.28-14.37.45-21.44.75-4.8.2-7.8-.47-13.22-1.33a.67.67 0 0 0-.77.66v2.35a1.76 1.75 88.8 0 1-1.68 1.76q-1.17.04-7.49.21-2.78.07-3.12-2.91a.45.45 0 0 0-.72-.3c-5.44 4.38-15.03 4.82-21.75 4.77-9.74-.07-20.1-1.76-26.34-9.37-3.21-3.92-2.24-8.69 2.86-10.15a.53.53 0 0 0 .21-.89c-4.03-3.74-2-8.77-.91-13.16a1.92 1.9-55.8 0 0-.29-1.56c-5.3-7.55-9.17-12.98-9.97-21.78a1.53 1.52-70.1 0 0-.44-.94l-2.01-2.01a2.74 2.73-73.1 0 1-.75-1.41q-.53-2.71-.34-7.14c1.85-42.81 20.46-94.46 64.21-111.32a2.15 2.12-89.2 0 0 1.21-1.19c2.13-5.16 4.36-6.5 9.69-8.37a5.7 5.63 14.9 0 0 1.82-1.04c1.97-1.67 3.67-5.49 6.69-6.31q4.56-1.25 5.55 3.52 1.23 5.88 3.2 10.44a.69.68-34.4 0 0 1.12.2c3.96-4 5.52-9.59 8.81-17.27q.87-2.03 3.51-4.28 5.15-4.38 8.44-7.28c2.77-2.45 5.53-3.98 8.92-3.63 4.36.44 6.75.79 9.31-.94a1.06 1.04 36.7 0 1 .91-.12q5.81 1.97 7.38 6.55a2.23 2.2-.4 0 0 1.42 1.38q2.98.94 4.2 3.97a1.4 1.4 0 0 0 .59.68l2.33 1.34a1.63 1.61-89.5 0 1 .62.64c1.53 2.84 2.25 6.52 4.76 9.47a.99.97-55.2 0 1 .17.99l-.11.3a.79.79 0 0 0 1.35.79l1.51-1.81a.49.49 0 0 1 .87.25c.29 2.41-2 5.24-3.17 6.84a.99.98-36.5 0 0-.14.91q1.37 4.12 5.2 2.35a.35.35 0 0 1 .38.58q-2.02 1.76-4.97 2.9a.36.36 0 0 0 0 .68l3.27 1.24a.31.31 0 0 1 .18.4q-1.11 2.88-1.22 4.11c-.41 4.46-3.34 7.22-7.54 7.82a2.15 2.13-26.6 0 1-1.83-.6l-2.63-2.63a.46.46 0 0 0-.66 0l-7.23 7.23a.89.87-70.9 0 1-.5.25c-5.38.86-7.03 4.96-9.16 10-1.24 2.91-3.22.98-4.98 0a1.74 1.58-60.1 0 0-2.2.71q-.97 1.63-2.79.35a.22.21 8.6 0 0-.33.24q.4 1.22-.1 1.58a.87.87 0 0 1-.79.13q-2.69-.85-4.86.67c-6.7 4.7-9.33-7.85-10.4-12.04a.41.41 0 0 0-.77-.08c-1.63 3.24-2.16 6.37-.34 10.01 1.83 3.65 3.07 7.62 1 12.66-4.49 10.89-7.67 16.82-4.78 27.28.95 3.47.23 6.05-1.16 8.77a.93.93 0 0 0 .46 1.28l3.41 1.46a1.57 1.43-11 0 1 .33.2q.75.61.84 1.83a.6.6 0 0 0 .71.54q.3-.06.69-.33c1.91-1.3 3.65.23 4.11 2.22a.48.48 0 0 0 .81.23l.7-.7a.93.92-52.3 0 1 1.1-.15l2.86 1.65a2.63 2.62-33.4 0 0 1.68.34l6.45-.86a4.71 4.67-38.3 0 1 2.29.26c3.41 1.09 5.76 4.45 10.97 3.49a.94.89-37.7 0 1 .48.05l2.07.79a1.05 1.03 50.6 0 0 .47.05l11.23-1.6a4.26 4.22 54.8 0 1 2.58.46l10.94 5.86a3 3 0 0 1 .84.67q4.92 5.67 7.18 12.74a1.76 1.72 74.9 0 1-1.26 2.25q-.76.16-1.49-.81-3.88-5.12-9.29-8.2a.2.19 81.9 0 0-.23.31q1.62 1.58 3.06 2.82 1.26 1.08 1.32 1.22a1.68 1.68 0 0 1-2.17 2.21c-5.33-2.1-7-6.45-13.65-5.58a2.78 2.77 29.2 0 0-.86.24c-4.43 2.05-8.52 4.77-12.07 1.05a1.23 1.2 67.6 0 0-.87-.37c-3.98-.01-7.88 1.78-11.54 2.45a.7.7 0 0 0-.22 1.3l1.62.93a3.46 3.43-37.7 0 0 2.67.33l7.85-2.28a2.6 2.6 0 0 1 1.66.06l4.16 1.59a8.66 8.54-32.4 0 0 2.55.55q2.73.18 9.53.07c3.59-.06 7.7 3.83 9.84 6.55a1.27 1.26-17.2 0 1-1.08 2.04c-1.4-.09-3.61-2-6.13-3.76a3.9 3.82-22 0 0-1.5-.62q-6.34-1.1-11.75 1.22a.37.37 0 0 0 .16.71c4.61-.11 9.69-.59 13.98 1.26a.84.84 0 0 1 .22 1.41q-1.12.96-3.03.96-9.09-.05-15.28.77m-25.11-115.91c1.81.56 3.11-.95 3.7-3.05.65-2.34 3.12-2.9 3.55-4.62q.5-1.97-.46-2.74a2.09 2.07-19.8 0 0-.88-.41c-6.22-1.23-8.28 5.4-6.68 10.07a1.21 1.19 88.9 0 0 .77.75"></path></g></svg>